:version 1.10
:name ASF
:units
  mass 1
  length 1
  angle deg
:documentation
  ASF file generated by Kaydara
:root
  axis xyz
  order  tx ty tz rx ry rz
  position 0 0 0
  orientation 0 0 0
:bonedata
  begin
    id 1
    name lowerbackDummy
    direction 0 0 0
    length 0
    axis 0 -0 0 xyz
  end
  begin
    id 2
    name lowerback
    direction 0.0149039 0.998517 -0.0523597
    length 4.68464
    axis 0 -0 0 xyz
    dof rx ry rz
    limits( -inf , inf )
( -inf , inf )
( -inf , inf )

  end
  begin
    id 3
    name upperback
    direction -0.00882659 0.999418 -0.0329624
    length 4.68933
    axis 0 -0 0 xyz
    dof rx ry rz
    limits( -inf , inf )
( -inf , inf )
( -inf , inf )

  end
  begin
    id 4
    name thorax
    direction -0.0165585 0.999826 -0.0085833
    length 4.68976
    axis 0 -0 0 xyz
    dof rx ry rz
    limits( -inf , inf )
( -inf , inf )
( -inf , inf )

  end
  begin
    id 5
    name lowerneck
    direction -0.0130877 0.999911 0.00260353
    length 3.85007
    axis 0 -0 0 xyz
    dof rx ry rz
    limits( -inf , inf )
( -inf , inf )
( -inf , inf )

  end
  begin
    id 6
    name upperneck
    direction -0.0348454 0.928205 -0.370435
    length 3.70427
    axis 0 -0 0 xyz
    dof rx ry rz
    limits( -inf , inf )
( -inf , inf )
( -inf , inf )

  end
  begin
    id 7
    name head
    direction 0 0 0
    length 0
    axis 0 0 0 xyz
    dof rx ry rz
    limits( -inf , inf )
( -inf , inf )
( -inf , inf )

  end
  begin
    id 8
    name lclavicle
    direction 0.987582 0.144023 0.0627671
    length 7.76078
    axis 0 -0 0 xyz
    dof rx ry rz
    limits( -inf , inf )
( -inf , inf )
( -inf , inf )

  end
  begin
    id 9
    name lhumerus
    direction 1 -4.48958e-011 -1.45183e-018
    length 12.0426
    axis 180 -30 -90 xyz
    dof rx ry rz
    limits( -inf , inf )
( -inf , inf )
( -inf , inf )

  end
  begin
    id 10
    name lradius
    direction 1 -4.48999e-011 3.74805e-027
    length 5.43051
    axis 180 -30 -90 xyz
    dof rz ry rx
    limits( -inf , inf )
( -inf , inf )
( -inf , inf )

  end
  begin
    id 11
    name lwrist
    direction 1 -4.48988e-011 -4.48237e-017
    length 2.71524
    axis -90 90 0 xyz
    dof rz rx ry
    limits( -inf , inf )
( -inf , inf )
( -inf , inf )

  end
  begin
    id 12
    name lhand
    direction 1 -4.48882e-011 -4.48237e-017
    length 1.61667
    axis -90 90 0 xyz
    dof ry rx rz
    limits( -inf , inf )
( -inf , inf )
( -inf , inf )

  end
  begin
    id 13
    name lfingers
    direction 0 0 0
    length 0
    axis 0 0 0 xyz
    dof rz ry rx
    limits( -inf , inf )
( -inf , inf )
( -inf , inf )

  end
  begin
    id 14
    name lthumb
    direction 0 0 0
    length 0
    axis 0 0 0 xyz
    dof ry rx rz
    limits( -inf , inf )
( -inf , inf )
( -inf , inf )

  end
  begin
    id 15
    name rclavicle
    direction -0.980998 0.169556 0.0943023
    length 7.31716
    axis 0 -0 0 xyz
    dof rx ry rz
    limits( -inf , inf )
( -inf , inf )
( -inf , inf )

  end
  begin
    id 16
    name rhumerus
    direction -1 -1.83355e-005 2.45537e-005
    length 12.4217
    axis 180 30 90 xyz
    dof rx ry rz
    limits( -inf , inf )
( -inf , inf )
( -inf , inf )

  end
  begin
    id 17
    name rradius
    direction -1 -4.48967e-011 0
    length 5.51244
    axis 180 30 90 xyz
    dof rz ry rx
    limits( -inf , inf )
( -inf , inf )
( -inf , inf )

  end
  begin
    id 18
    name rwrist
    direction -1 -4.48964e-011 -4.48237e-017
    length 2.75622
    axis -90 -90 0 xyz
    dof rz rx ry
    limits( -inf , inf )
( -inf , inf )
( -inf , inf )

  end
  begin
    id 19
    name rhand
    direction -1 -4.48882e-011 -4.48237e-017
    length 1.81335
    axis -90 -90 0 xyz
    dof ry rx rz
    limits( -inf , inf )
( -inf , inf )
( -inf , inf )

  end
  begin
    id 20
    name rfingers
    direction 0 0 0
    length 0
    axis 0 0 0 xyz
    dof rz ry rx
    limits( -inf , inf )
( -inf , inf )
( -inf , inf )

  end
  begin
    id 21
    name rthumb
    direction 0 0 0
    length 0
    axis 0 0 0 xyz
    dof ry rx rz
    limits( -inf , inf )
( -inf , inf )
( -inf , inf )

  end
  begin
    id 22
    name rfemurDummy
    direction -0.640058 -0.688614 0.340788
    length 5.51442
    axis 0 -0 0 xyz
  end
  begin
    id 23
    name rfemur
    direction -0.34202 -0.939693 0
    length 14.6194
    axis 0 -0 -20 xyz
    dof rx ry rz
    limits( -inf , inf )
( -inf , inf )
( -inf , inf )

  end
  begin
    id 24
    name rtibia
    direction -0.34202 -0.939693 0
    length 17.7267
    axis 0 -0 -20 xyz
    dof rz ry rx
    limits( -inf , inf )
( -inf , inf )
( -inf , inf )

  end
  begin
    id 25
    name rfoot
    direction -0.0979793 -0.269196 0.958089
    length 4.88571
    axis -90 -7.62852e-016 -20 xyz
    dof ry rx rz
    limits( -inf , inf )
( -inf , inf )
( -inf , inf )

  end
  begin
    id 26
    name rtoes
    direction 0 0 0
    length 0
    axis 0 0 0 xyz
    dof rz ry rx
    limits( -inf , inf )
( -inf , inf )
( -inf , inf )

  end
  begin
    id 27
    name lfemurDummy
    direction 0.653368 -0.678499 0.335782
    length 5.59662
    axis 0 -0 0 xyz
  end
  begin
    id 28
    name lfemur
    direction 0.34202 -0.939693 0
    length 14.6166
    axis 0 -0 20 xyz
    dof rx ry rz
    limits( -inf , inf )
( -inf , inf )
( -inf , inf )

  end
  begin
    id 29
    name ltibia
    direction 0.34202 -0.939693 0
    length 17.6582
    axis 0 -0 20 xyz
    dof rz ry rx
    limits( -inf , inf )
( -inf , inf )
( -inf , inf )

  end
  begin
    id 30
    name lfoot
    direction 0.0811271 -0.222895 0.971461
    length 5.14087
    axis -90 7.62852e-016 20 xyz
    dof ry rx rz
    limits( -inf , inf )
( -inf , inf )
( -inf , inf )

  end
  begin
    id 31
    name ltoes
    direction 0 0 0
    length 0
    axis 0 0 0 xyz
    dof rz ry rx
    limits( -inf , inf )
( -inf , inf )
( -inf , inf )

  end
:hierarchy
  begin
    root lowerbackDummy rfemurDummy lfemurDummy
    lowerbackDummy lowerback
    lowerback upperback
    upperback thorax
    thorax lowerneck lclavicle rclavicle
    lowerneck upperneck
    upperneck head
    lclavicle lhumerus
    lhumerus lradius
    lradius lwrist
    lwrist lhand lthumb
    lhand lfingers
    rclavicle rhumerus
    rhumerus rradius
    rradius rwrist
    rwrist rhand rthumb
    rhand rfingers
    rfemurDummy rfemur
    rfemur rtibia
    rtibia rfoot
    rfoot rtoes
    lfemurDummy lfemur
    lfemur ltibia
    ltibia lfoot
    lfoot ltoes
  end

:SAMPLES-PER-SECOND 30
:FULLY-SPECIFIED
:DEGREES
107
root  1.565704477 36.84066712 -21.04017753 9.106100082 0.1969449967 1.615069985
lowerback  -2.596610069 0.7778149843 -2.36755991
upperback  -1.799489975 1.085309982 0.5573260188
thorax  -0.4446460009 0.5673890114 1.921190023
lowerneck  -16.09670067 -0.7165700197 -2.388530016
upperneck  40.16910172 0.4517529905 -1.491090059
head  17.50180054 -0.3802430034 -0.1621659994
lclavicle  0 5.864150125e-015 -2.067359921e-014
lhumerus  -35.03419876 19.46800041 62.75159836
lradius  -2.424234398e-031 -2.56747573e-031 46.64369965
lwrist  -7.062250077e-031 -0 -3.861730099
lhand  -3.531249414e-031 0.4808869958 20.75569916
lfingers  90 7.125020027 -90
lthumb  91.75431046 3.583533612 63.89421712
rclavicle  0 5.864150125e-015 -2.067359921e-014
rhumerus  -43.47159958 -11.14179993 -72.4151001
rradius  3.176515597e-031 1.542268685e-031 25.89760017
rwrist  1.412450015e-030 -0 -7.801239967
rhand  -3.553347978e-031 -6.411300182 11.9041996
rfingers  -90 -7.125020027 -90
rthumb  -80.02580856 -26.14327443 -68.24168937
rfemur  -39.01869965 17.85079956 11.73719978
rtibia  -0 0 26.76320076
rfoot  -0 -14.9715004 -24.53420067
rtoes  -0.1553126553 19.99942163 -89.54589198
lfemur  11.73419952 -8.470210075 -27.30459976
ltibia  -0 0 6.562950134
lfoot  -0 -17.31970024 21.91729927
ltoes  0.3080385935 -19.99772479 -89.09932265
108
root  1.517384447 36.83222072 -20.64157771 8.861379623 0.1563159972 1.14368999
lowerback  -2.568289995 0.8741589785 -1.748340011
upperback  -1.706750035 1.201500058 0.6990579963
thorax  -0.3608120084 0.6191669703 1.722010016
lowerneck  -16.54999924 -0.5927600265 -1.954300046
upperneck  40.80469894 0.7366150022 -1.989680052
head  17.9932003 -0.2758179903 -0.4254800081
lclavicle  0 5.864150125e-015 -2.067359921e-014
lhumerus  -35.36579895 19.87220001 62.62400055
lradius  -2.440126883e-031 -2.552376311e-031 46.2879982
lwrist  -1.412450015e-030 -3.531125038e-031 -3.728970051
lhand  -3.531129663e-031 -0.09272930026 20.97660065
lfingers  90 7.125020027 -90
lthumb  91.84981748 3.871368297 64.43587617
rclavicle  0 5.864150125e-015 -2.067359921e-014
rhumerus  -43.34579849 -11.51500034 -72.12349701
rradius  3.190727706e-031 1.512646933e-031 25.36450005
rwrist  7.062250077e-031 -0 -7.397250175
rhand  -3.552628606e-031 -6.307209969 11.90610027
rfingers  -90 -7.125020027 -90
rthumb  -79.9724611 -26.13703218 -68.12968863
rfemur  -38.56000137 17.71339989 12.71399975
rtibia  -0 0 27.53230095
rfoot  -0 -14.43809986 -23.57480049
rtoes  0.3894158928 19.99636374 -91.13864208
lfemur  11.35000038 -8.290200233 -26.80870056
ltibia  -0 0 8.902029991
lfoot  -0 -17.69350052 21.58270073
ltoes  0.3320381286 -19.99735643 -89.02914443
109
root  1.474906704 36.81355574 -20.25613259 8.768799782 0.04286869988 0.7023919821
lowerback  -2.822419882 0.9712929726 -1.189880013
upperback  -1.539999962 1.321830034 0.8694810271
thorax  -0.04391060024 0.672047019 1.593039989
lowerneck  -15.96459961 -0.7309280038 -2.562360048
upperneck  40.18740082 0.5118989944 -1.536900043
head  17.47929955 -0.386732012 -0.1395359933
lclavicle  0 5.864150125e-015 -2.067359921e-014
lhumerus  -35.59749985 20.19330025 62.76079941
lradius  -2.449629632e-031 -2.543257499e-031 46.07429886
lwrist  -1.059337512e-030 -0 -3.199800014
lhand  -7.062474486e-031 -0.4567520022 20.22450066
lfingers  90 7.125020027 -90
lthumb  91.52639985 3.246848679 64.80393709
rclavicle  0 5.864150125e-015 -2.067359921e-014
rhumerus  -42.94240189 -11.99880028 -71.73529816
rradius  3.209437519e-031 1.472533479e-031 24.64629936
rwrist  1.412450015e-030 -0 -6.861899853
rhand  -3.555250554e-031 -6.678619862 11.76500034
rfingers  -90 -7.125020027 -90
rthumb  -80.21742113 -26.03395467 -68.5533468
rfemur  -38.21139908 17.33939934 13.67510033
rtibia  -0 0 28.15340042
rfoot  -0 -13.45090008 -22.45949936
rtoes  0.2929387295 19.9979424 -90.85652372
lfemur  10.69169998 -8.061829567 -26.34329987
ltibia  -0 0 11.41730022
lfoot  -0 -17.9673996 21.39209938
ltoes  0.5363736369 -19.99310072 -88.43157543
110
root  1.42414889 36.811333 -19.88286597 8.686019897 -0.1323540062 0.3029470146
lowerback  -2.763590097 1.061800003 -0.7094219923
upperback  -1.594089985 1.430809975 0.9750739932
thorax  -0.1268810034 0.7248889804 1.432770014
lowerneck  -16.03479958 -0.6432920098 -2.379679918
upperneck  40.44900131 0.6436470151 -1.65594995
head  17.64699936 -0.3247460127 -0.2048220038
lclavicle  0 5.864150125e-015 -2.067359921e-014
lhumerus  -36.38830185 20.13579941 62.72060013
lradius  -2.438995047e-031 -2.55345789e-031 46.31340027
lwrist  -7.062250077e-031 -3.531125038e-031 -2.388410091
lhand  -3.531489934e-031 -0.8236569762 19.8159008
lfingers  90 7.125020027 -90
lthumb  91.35510792 2.929731374 65.16414429
rclavicle  0 5.864150125e-015 -2.067359921e-014
rhumerus  -42.89550018 -12.41160011 -71.37590027
rradius  3.224229381e-031 1.439857261e-031 24.06430054
rwrist  7.062250077e-031 -0 -6.16215992
rhand  -3.556083947e-031 -6.792329788 11.66959953
rfingers  -90 -7.125020027 -90
rthumb  -80.31306388 -25.95355812 -68.69218173
rfemur  -37.8022995 16.94739914 14.61660004
rtibia  -0 0 28.65800095
rfoot  -0 -12.79759979 -21.22039986
rtoes  0.6374846792 19.99025358 -91.86417093
lfemur  9.835920334 -7.647550106 -25.86339951
ltibia  -0 0 14.0632
lfoot  -0 -18.15239906 21.0387001
ltoes  1.152046038 -19.96814877 -86.6299268
